HIERARCHY
ROOT Hips
{
	OFFSET 0.000000 0.000000 0.000000
	CHANNELS 6 Xposition Yposition Zposition Xrotation Yrotation Zrotation
	JOINT LeftUpLeg_virtual
	{
		OFFSET 0.000000 0.000000 0.000000
		CHANNELS 3 Xrotation Yrotation Zrotation
		JOINT LeftUpLeg
		{
			OFFSET 11.394100 -6.187798 -0.413800
			CHANNELS 3 Xrotation Yrotation Zrotation
			JOINT LeftLeg
			{
				OFFSET 0.430247 -32.302673 3.732800
				CHANNELS 3 Xrotation Yrotation Zrotation
				JOINT LeftFoot
				{
					OFFSET -0.430247 -48.264931 -6.423300
					CHANNELS 3 Xrotation Yrotation Zrotation
					JOINT LeftToeBase
					{
						OFFSET 4.230900 -16.068199 23.438400
						CHANNELS 3 Xrotation Yrotation Zrotation
						JOINT LeftToe_End
						{
							OFFSET 4.510700 0.695400 19.974600
							CHANNELS 3 Xrotation Yrotation Zrotation
							End Site
							{
								OFFSET 0 0 0
							}
						}
					}
				}
			}
		}
	}
	JOINT RightUpLeg_virtual
	{
		OFFSET 0.000000 0.000000 0.000000
		CHANNELS 3 Xrotation Yrotation Zrotation
		JOINT RightUpLeg
		{
			OFFSET -11.333700 -6.187798 -0.413800
			CHANNELS 3 Xrotation Yrotation Zrotation
			JOINT RightLeg
			{
				OFFSET -0.430392 -32.302628 3.733000
				CHANNELS 3 Xrotation Yrotation Zrotation
				JOINT RightFoot
				{
					OFFSET 0.430392 -48.264973 -6.423500
					CHANNELS 3 Xrotation Yrotation Zrotation
					JOINT RightToeBase
					{
						OFFSET -4.230900 -16.068199 23.438400
						CHANNELS 3 Xrotation Yrotation Zrotation
						JOINT RightToe_End
						{
							OFFSET -4.510700 0.695400 19.974600
							CHANNELS 3 Xrotation Yrotation Zrotation
							End Site
							{
								OFFSET 0 0 0
							}
						}
					}
				}
			}
		}
	}
	JOINT Spine_virtual
	{
		OFFSET 0.000000 0.000000 0.000000
		CHANNELS 3 Xrotation Yrotation Zrotation
		JOINT Spine
		{
			OFFSET -0.002400 12.777504 0.315300
			CHANNELS 3 Xrotation Yrotation Zrotation
			JOINT Spine1
			{
				OFFSET -0.002067 5.816869 0.032633
				CHANNELS 3 Xrotation Yrotation Zrotation
				JOINT Spine1_split
				{
					OFFSET -0.002067 5.816869 0.032633
					CHANNELS 3 Xrotation Yrotation Zrotation
					JOINT Spine2
					{
						OFFSET -0.002067 5.816869 0.032633
						CHANNELS 3 Xrotation Yrotation Zrotation
						JOINT Neck_virtual
						{
							OFFSET 0.000000 0.000000 0.000000
							CHANNELS 3 Xrotation Yrotation Zrotation
							JOINT Neck
							{
								OFFSET -0.003700 21.199493 -0.826900
								CHANNELS 3 Xrotation Yrotation Zrotation
								JOINT Head
								{
									OFFSET 0.000000 20.442200 4.834800
									CHANNELS 3 Xrotation Yrotation Zrotation
									JOINT HeadTop_End
									{
										OFFSET 0.000000 34.668396 4.968400
										CHANNELS 3 Xrotation Yrotation Zrotation
										End Site
										{
											OFFSET 0 0 0
										}
									}
								}
							}
						}
						JOINT LeftShoulder_virtual
						{
							OFFSET 0.000000 0.000000 0.000000
							CHANNELS 3 Xrotation Yrotation Zrotation
							JOINT LeftShoulder
							{
								OFFSET 3.288150 8.794197 -1.372250
								CHANNELS 3 Xrotation Yrotation Zrotation
								JOINT LeftShoulder_split
								{
									OFFSET 3.288150 8.794197 -1.372250
									CHANNELS 3 Xrotation Yrotation Zrotation
									JOINT LeftArm
									{
										OFFSET 11.953299 -2.279007 -0.146200
										CHANNELS 3 Xrotation Yrotation Zrotation
										JOINT LeftForeArm
										{
											OFFSET 18.448900 0.000000 0.000000
											CHANNELS 3 Xrotation Yrotation Zrotation
											JOINT LeftHand
											{
												OFFSET 29.527798 0.000000 0.000000
												CHANNELS 3 Xrotation Yrotation Zrotation
												End Site
												{
													OFFSET 0 0 0
												}
											}
										}
									}
								}
							}
						}
						JOINT RightShoulder_virtual
						{
							OFFSET 0.000000 0.000000 0.000000
							CHANNELS 3 Xrotation Yrotation Zrotation
							JOINT RightShoulder
							{
								OFFSET -3.249400 8.794197 -1.372250
								CHANNELS 3 Xrotation Yrotation Zrotation
								JOINT RightShoulder_split
								{
									OFFSET -3.249400 8.794197 -1.372250
									CHANNELS 3 Xrotation Yrotation Zrotation
									JOINT RightArm
									{
										OFFSET -11.953299 -2.279007 -0.146200
										CHANNELS 3 Xrotation Yrotation Zrotation
										JOINT RightForeArm
										{
											OFFSET -18.448900 0.000000 0.000000
											CHANNELS 3 Xrotation Yrotation Zrotation
											JOINT RightHand
											{
												OFFSET -29.527802 0.000000 0.000000
												CHANNELS 3 Xrotation Yrotation Zrotation
												End Site
												{
													OFFSET 0 0 0
												}
											}
										}
									}
								}
							}
						}
					}
				}
			}
		}
	}
}
MOTION
Frames: 8
Frame Time: 0.03333333
2.443233 96.367897 -54.927521 0.000000 0.000000 0.000000 173.018090 -62.813842 173.226670 -29.717432 12.544001 21.564821 39.005981 -4.841162 -3.001070 -10.464692 6.040472 -2.323589 5.030905 1.045594 -3.992938 0.000000 0.000000 0.000000 172.074718 -63.529024 171.704153 -14.803146 -0.484734 3.915000 29.181157 -0.319069 0.585200 -17.855153 -2.566500 -7.234872 -1.721303 -2.460321 -11.381525 0.000000 0.000000 0.000000 172.908343 -65.431573 171.706953 2.220396 5.897834 1.661279 -2.398203 2.354193 -2.723247 0.133393 -0.541943 0.019071 0.000000 0.000000 0.000000 0.962113 3.373408 -1.950837 -6.198887 16.232611 9.561511 -16.559944 4.841913 1.713985 0.000000 0.000000 0.000000 -1.057163 0.993884 -2.202063 2.936899 3.811242 6.028909 0.781922 -0.067300 1.587551 -11.157532 8.243206 -72.512116 18.245472 -12.657389 1.334329 0.000000 0.000000 0.000000 -3.976559 1.146966 -0.108053 -0.637403 -14.643263 18.342391 -20.763509 -9.368810 -5.495439 16.187608 43.008479 46.625996 12.316036 26.168605 1.823850 0.000000 0.000000 0.000000 
2.189335 96.877205 -56.674973 0.000000 0.000000 0.000000 173.871481 -57.484737 174.938548 -30.072435 7.818617 17.319714 38.937901 -5.117611 -1.987070 -8.479109 6.278059 -4.155262 4.060778 1.245921 -4.777661 0.000000 0.000000 0.000000 172.652210 -59.077482 173.238896 -14.361677 2.979316 4.356432 27.606969 1.867214 -0.093944 -16.694145 -2.512637 -9.024868 -3.371246 -2.909253 -8.327143 0.000000 0.000000 0.000000 174.469956 -60.254180 174.419727 2.330290 6.698472 1.961237 -2.050259 2.755993 -2.752942 0.108131 -0.592327 0.016823 0.000000 0.000000 0.000000 1.808859 3.747731 -2.210001 -5.769407 15.773033 9.134873 -17.260446 4.219411 3.004105 0.000000 0.000000 0.000000 -0.390185 1.291945 -2.158836 2.373719 2.516851 4.961224 1.216673 0.285025 1.660456 -8.877067 8.587441 -72.977293 17.897915 -11.947703 0.324095 0.000000 0.000000 0.000000 -3.755337 1.411762 -0.173598 -0.851900 -14.626517 18.347179 -19.644741 -8.785082 -5.481906 15.016956 43.941571 46.518619 12.556569 27.043782 1.351909 0.000000 0.000000 0.000000 
1.687758 97.438698 -58.261627 0.000000 0.000000 0.000000 174.090184 -52.203245 175.969346 -31.423539 3.369982 12.992324 37.215201 -5.414926 -0.540355 -5.669580 6.241023 -6.889104 1.889564 1.461646 -5.331539 0.000000 0.000000 0.000000 172.832077 -55.031295 174.341193 -13.624172 5.850895 4.761986 26.207292 3.930859 -0.687726 -15.837636 -2.464256 -11.223328 -4.690975 -3.254713 -5.334937 0.000000 0.000000 0.000000 175.228653 -55.100475 176.310091 2.335966 7.418054 2.128167 -1.624258 3.085050 -2.690712 0.082297 -0.593716 0.024146 0.000000 0.000000 0.000000 2.781899 4.090564 -2.394891 -5.419153 15.580618 8.636545 -17.724614 3.605177 4.287618 0.000000 0.000000 0.000000 0.361829 1.558151 -1.994500 1.769276 1.355101 3.941957 1.276402 0.088329 1.464675 -6.235818 8.536254 -73.414111 16.798628 -10.943643 -1.023112 0.000000 0.000000 0.000000 -3.377816 1.639620 -0.195687 -1.119224 -14.337281 18.208432 -18.213470 -8.407679 -5.022275 13.284399 45.244430 46.718835 12.275854 27.131268 1.090014 0.000000 0.000000 0.000000 
1.011121 97.883331 -59.879158 0.000000 0.000000 0.000000 174.229615 -47.096565 176.779325 -33.694095 -0.210753 9.081344 34.620139 -5.510104 1.042587 -2.744832 6.068663 -10.023888 -0.421507 1.683071 -5.785397 0.000000 0.000000 0.000000 173.156128 -51.105094 175.383221 -12.586737 7.873417 5.235593 25.548768 5.696410 -1.239178 -15.794235 -2.216919 -14.226958 -5.144133 -3.366859 -2.919529 0.000000 0.000000 0.000000 175.741368 -49.975125 177.592049 2.441922 8.095736 2.232109 -1.169028 3.294771 -2.528092 0.047044 -0.582138 0.049593 0.000000 0.000000 0.000000 3.796232 4.360077 -2.465757 -5.114806 15.614787 8.187217 -18.026935 3.000242 5.667635 0.000000 0.000000 0.000000 1.123785 1.778002 -1.710866 1.187949 0.512424 3.130287 1.206384 -0.090199 0.948588 -3.402686 8.554291 -74.191591 15.267870 -10.219282 -2.384324 0.000000 0.000000 0.000000 -2.819467 1.813490 -0.184253 -1.374818 -13.587962 18.108995 -16.699485 -8.167669 -4.451078 11.069604 46.824635 47.434588 11.508016 26.723810 1.067365 0.000000 0.000000 0.000000 
0.124752 98.113899 -61.444740 0.000000 0.000000 0.000000 174.499818 -42.318141 177.470608 -36.838448 -2.565219 6.113110 32.428379 -5.335010 2.561123 0.035887 5.788342 -13.245344 -1.357205 1.789020 -6.080015 0.000000 0.000000 0.000000 173.707024 -47.082246 176.262881 -11.290296 9.005909 5.640654 25.909249 7.254227 -1.744997 -16.544496 -1.447500 -17.694338 -5.472451 -3.104552 -1.816789 0.000000 0.000000 0.000000 176.366440 -45.095330 178.445809 2.884913 8.730063 2.373931 -0.693266 3.395392 -2.292555 0.061551 -0.576735 0.044680 0.000000 0.000000 0.000000 4.764460 4.539716 -2.406488 -5.010272 15.828994 7.972455 -18.593751 2.533666 7.016511 0.000000 0.000000 0.000000 1.855976 1.966124 -1.369271 0.641084 0.146621 2.483797 1.309349 -0.467413 0.065995 -0.565356 8.947510 -75.548374 13.738430 -10.406760 -3.401845 0.000000 0.000000 0.000000 -2.121696 1.921741 -0.147787 -1.607942 -12.314913 18.194552 -15.316134 -8.089445 -3.805019 8.737815 48.580584 48.565292 10.351689 26.298016 1.214278 0.000000 0.000000 0.000000 
-0.913413 98.102661 -63.176041 0.000000 0.000000 0.000000 175.130709 -37.971566 178.110611 -40.334542 -3.740729 4.320682 31.377770 -4.921307 3.890857 2.406168 5.363670 -16.387135 -0.481112 1.675485 -5.898643 0.000000 0.000000 0.000000 174.649440 -42.903222 177.133115 -9.865792 9.294616 5.850151 27.089341 8.988502 -2.292221 -17.168722 0.143657 -20.686389 -6.771526 -2.409285 -2.671694 0.000000 0.000000 0.000000 177.392553 -40.657285 179.021376 3.805581 9.256890 2.595542 -0.235344 3.371558 -2.028301 0.116644 -0.702209 0.079371 0.000000 0.000000 0.000000 5.672134 4.624462 -2.209019 -5.206374 16.160335 8.124887 -19.907742 2.132874 8.056766 0.000000 0.000000 0.000000 2.508786 2.110960 -1.043839 0.103326 0.280764 1.915144 1.870134 -0.931070 -0.710965 1.958737 9.779021 -77.538425 12.498450 -11.754978 -3.943947 0.000000 0.000000 0.000000 -1.411040 1.938582 -0.128963 -1.797151 -10.590095 18.514210 -14.307441 -8.326797 -3.316062 6.622603 50.165117 50.100879 8.889839 26.319241 1.479143 0.000000 0.000000 0.000000 
-2.043752 97.986877 -65.200027 0.000000 0.000000 0.000000 176.063972 -34.318647 178.598723 -43.404957 -4.073859 3.569515 31.323213 -4.083339 4.785193 3.786230 4.895539 -18.939636 0.649668 1.339724 -4.761852 0.000000 0.000000 0.000000 175.784685 -38.882433 177.713449 -8.547574 8.804533 5.795459 28.507424 11.442899 -2.904841 -17.073390 2.674036 -22.131739 -8.957168 -1.241604 -5.772559 0.000000 0.000000 0.000000 179.023507 -37.076371 179.491552 5.292977 9.578412 2.814871 0.173931 3.231077 -1.805244 0.175023 -1.029009 0.169199 0.000000 0.000000 0.000000 6.489745 4.616894 -1.895357 -5.716183 16.504681 8.736769 -21.922288 1.910964 8.431341 0.000000 0.000000 0.000000 2.995959 2.195389 -0.829212 -0.485060 0.925548 1.217481 2.947566 -1.531750 -1.282956 3.912073 10.808540 -79.882655 11.786672 -14.121807 -3.997683 0.000000 0.000000 0.000000 -0.807309 1.875745 -0.192869 -1.911112 -8.671478 19.023928 -13.339729 -8.847141 -2.922690 4.788212 51.191855 52.039751 7.233737 26.974393 1.731903 0.000000 0.000000 0.000000 
-3.208114 97.924492 -67.631432 0.000000 0.000000 0.000000 177.144303 -31.308262 178.896834 -44.919470 -4.037894 3.317691 31.555877 -2.493564 5.172881 3.888019 4.711031 -20.274605 0.727016 0.773233 -2.771218 0.000000 0.000000 0.000000 176.829786 -35.815880 177.805957 -7.349050 7.655517 5.485319 29.821248 14.775560 -3.527388 -16.061945 5.858944 -21.747850 -11.330227 0.372652 -10.730957 0.000000 0.000000 0.000000 -179.055062 -34.572410 179.768448 7.241008 9.600115 2.956318 0.430869 3.006271 -1.662648 0.241185 -1.463792 0.278395 0.000000 0.000000 0.000000 7.159223 4.518190 -1.508035 -6.543111 16.775860 9.742687 -24.465015 1.797007 7.862281 0.000000 0.000000 0.000000 3.260863 2.227757 -0.785507 -1.074698 1.878740 0.109644 4.179243 -2.490227 -1.281184 5.306237 11.612680 -81.910497 11.549230 -17.154416 -3.656087 0.000000 0.000000 0.000000 -0.413635 1.724556 -0.390177 -2.019666 -6.761811 19.567877 -12.108856 -9.353819 -2.609523 3.434960 51.608165 54.136083 5.536674 28.254078 1.874025 0.000000 0.000000 0.000000 
